{"title":"The.Other.Guys.2010.DVDRiP.XviD.R5.LiNE.CUSTOM.SWESUB-Zen_Bud","uid":5952509,"size":1464504860,"categoryP":"video","categoryS":"movies","magnet":"?xt=urn:btih:f09de6c0d49a2f03f1c95620158f11af8aa007a0&amp;dn=The.Other.Guys.2010.DVDRiP.XviD.R5.LiNE.CUSTOM.SWESUB-Zen_Bud&amp;tr=udp%3A%2F%2Ftracker.openbittorrent.com%3A80&amp;tr=udp%3A%2F%2Fopen.demonii.com%3A1337&amp;tr=udp%3A%2F%2Ftracker.coppersurfer.tk%3A6969&amp;tr=udp%3A%2F%2Fexodus.desync.com%3A6969","seeders":0,"leechers":0,"uploader":"Zen_Bud","files":-1,"time":1289575684,"description":"_______ The.Other.Guys.2010.DVDRiP.XviD.R5.LiNE.CUSTOM.SWESUB-Zen_Bud ______\n\n\nFormat                           : AVI\nFormat profile                   : OpenDML\nFile size                        : 1.36 GiB\nDuration                         : 1h 42mn\nOverall bit rate                 : 1 897 Kbps\nWriting application              : AVI-Mux GUI 1.17.8.3\n\nVideo\n\nFormat                           : MPEG-4 Visual\nCodec ID/Hint                    : XviD\nDuration                         : 1h 42mn\nBit rate                         : 1 765 Kbps\nWidth                            : 720 pixels\nHeight                           : 402 pixels\nDisplay aspect ratio             : 2.547\nStream size                      : 1.27 GiB (93%)\nWriting library                  : XviD 1.1.2 (UTC 2006-11-01)\n\nAudio\n\nFormat                           : MPEG Audio\nCodec ID/Hint                    : MP3\nDuration                         : 1h 42mn\nBit rate                         : 128 Kbps\nChannel(s)                       : 2 channels\nSampling rate                    : 48.0 KHz\nStream size                      : 94.2 MiB (7%)\n\n\nTwo mismatched New York City detectives seize an opportunity to step up like the city's top cops whom they idolize -- only things don't quite go as planned. ","torrent":{"xt":"urn:btih:f09de6c0d49a2f03f1c95620158f11af8aa007a0","amp;dn":"The.Other.Guys.2010.DVDRiP.XviD.R5.LiNE.CUSTOM.SWESUB-Zen_Bud","amp;tr":["udp%3A%2F%2Ftracker.openbittorrent.com%3A80","udp%3A%2F%2Fopen.demonii.com%3A1337","udp%3A%2F%2Ftracker.coppersurfer.tk%3A6969","udp%3A%2F%2Fexodus.desync.com%3A6969"],"infoHash":"f09de6c0d49a2f03f1c95620158f11af8aa007a0","infoHashBuffer":{"type":"Buffer","data":[240,157,230,192,212,154,47,3,241,201,86,32,21,143,17,175,138,160,7,160]},"announce":[],"urlList":[]}}